<mxfile host="65bd71144e">
    <diagram id="FhiHHuFsEv77ZoWapT6K" name="Page-1">
        <mxGraphModel dx="1245" dy="613" grid="0" gridSize="10" guides="1" tooltips="1" connect="1" arrows="1" fold="1" page="1" pageScale="1" pageWidth="850" pageHeight="1100" background="#ffffff" math="0" shadow="0">
            <root>
                <mxCell id="0"/>
                <mxCell id="1" parent="0"/>
                <mxCell id="5" style="edgeStyle=none;html=1;exitX=0.5;exitY=1;exitDx=0;exitDy=0;entryX=0.5;entryY=0;entryDx=0;entryDy=0;strokeColor=#000000;" edge="1" parent="1" source="3" target="4">
                    <mxGeometry relative="1" as="geometry"/>
                </mxCell>
                <mxCell id="7" style="edgeStyle=none;html=1;exitX=0.5;exitY=1;exitDx=0;exitDy=0;entryX=0.5;entryY=0;entryDx=0;entryDy=0;strokeColor=#000000;" edge="1" parent="1" source="3" target="6">
                    <mxGeometry relative="1" as="geometry"/>
                </mxCell>
                <mxCell id="3" value="主界面" style="whiteSpace=wrap;html=1;" vertex="1" parent="1">
                    <mxGeometry x="338" y="169" width="120" height="60" as="geometry"/>
                </mxCell>
                <mxCell id="10" value="" style="edgeStyle=none;html=1;strokeColor=#000000;" edge="1" parent="1" source="4" target="9">
                    <mxGeometry relative="1" as="geometry"/>
                </mxCell>
                <mxCell id="4" value="汉诺塔显示区域" style="whiteSpace=wrap;html=1;" vertex="1" parent="1">
                    <mxGeometry x="173" y="276" width="120" height="60" as="geometry"/>
                </mxCell>
                <mxCell id="12" style="edgeStyle=none;html=1;exitX=0.5;exitY=1;exitDx=0;exitDy=0;entryX=0.5;entryY=0;entryDx=0;entryDy=0;strokeColor=#000000;" edge="1" parent="1" source="6" target="8">
                    <mxGeometry relative="1" as="geometry"/>
                </mxCell>
                <mxCell id="13" style="edgeStyle=none;html=1;exitX=0.5;exitY=1;exitDx=0;exitDy=0;entryX=0.5;entryY=0;entryDx=0;entryDy=0;strokeColor=#000000;" edge="1" parent="1" source="6" target="11">
                    <mxGeometry relative="1" as="geometry"/>
                </mxCell>
                <mxCell id="6" value="菜单" style="whiteSpace=wrap;html=1;" vertex="1" parent="1">
                    <mxGeometry x="506" y="276" width="120" height="60" as="geometry"/>
                </mxCell>
                <mxCell id="8" value="开始/重置" style="whiteSpace=wrap;html=1;" vertex="1" parent="1">
                    <mxGeometry x="373" y="380" width="120" height="60" as="geometry"/>
                </mxCell>
                <mxCell id="9" value="可拖拽移动圆盘" style="whiteSpace=wrap;html=1;" vertex="1" parent="1">
                    <mxGeometry x="173" y="387" width="120" height="60" as="geometry"/>
                </mxCell>
                <mxCell id="11" value="自动求解" style="whiteSpace=wrap;html=1;" vertex="1" parent="1">
                    <mxGeometry x="641" y="380" width="120" height="60" as="geometry"/>
                </mxCell>
                <mxCell id="15" value="选项" style="edgeStyle=none;html=1;strokeColor=#000000;" edge="1" parent="1" source="14" target="8">
                    <mxGeometry relative="1" as="geometry"/>
                </mxCell>
                <mxCell id="14" value="盘数" style="whiteSpace=wrap;html=1;" vertex="1" parent="1">
                    <mxGeometry x="373" y="511" width="120" height="60" as="geometry"/>
                </mxCell>
                <mxCell id="18" value="选项" style="edgeStyle=none;html=1;exitX=0.5;exitY=0;exitDx=0;exitDy=0;entryX=0.5;entryY=1;entryDx=0;entryDy=0;strokeColor=#000000;" edge="1" parent="1" source="16" target="11">
                    <mxGeometry relative="1" as="geometry"/>
                </mxCell>
                <mxCell id="16" value="暂停" style="whiteSpace=wrap;html=1;" vertex="1" parent="1">
                    <mxGeometry x="529" y="511" width="120" height="60" as="geometry"/>
                </mxCell>
                <mxCell id="21" value="选项" style="edgeStyle=none;html=1;exitX=0.5;exitY=0;exitDx=0;exitDy=0;entryX=0.5;entryY=1;entryDx=0;entryDy=0;strokeColor=#000000;" edge="1" parent="1" source="19" target="11">
                    <mxGeometry relative="1" as="geometry"/>
                </mxCell>
                <mxCell id="19" value="继续" style="whiteSpace=wrap;html=1;" vertex="1" parent="1">
                    <mxGeometry x="656" y="511" width="120" height="60" as="geometry"/>
                </mxCell>
                <mxCell id="22" style="edgeStyle=none;html=1;exitX=0.5;exitY=0;exitDx=0;exitDy=0;entryX=0.5;entryY=1;entryDx=0;entryDy=0;strokeColor=#000000;" edge="1" parent="1" source="20" target="11">
                    <mxGeometry relative="1" as="geometry"/>
                </mxCell>
                <mxCell id="23" value="选项" style="edgeLabel;html=1;align=center;verticalAlign=middle;resizable=0;points=[];" vertex="1" connectable="0" parent="22">
                    <mxGeometry x="-0.1816" relative="1" as="geometry">
                        <mxPoint as="offset"/>
                    </mxGeometry>
                </mxCell>
                <mxCell id="20" value="速度" style="whiteSpace=wrap;html=1;" vertex="1" parent="1">
                    <mxGeometry x="790" y="511" width="120" height="60" as="geometry"/>
                </mxCell>
            </root>
        </mxGraphModel>
    </diagram>
</mxfile>